# xmcd
# 
# Track frame offsets:
#     150
#     49115
#     77886
#     114517
#     130438
#     152931
#     175536
#     197555
#     206105
#     225953
# 
# Disc length: 3254
# 
# Revision: 0
# Processed by: cddbd v1.5.2PL0 Copyright (c) Steve Scherf et al.
# Submitted via: fre:ac v1.0.27
# 
DISCID=800cb40a
DTITLE=Wei 3 - Wei 3
DYEAR=0
DGENRE=
TTITLE0=Le Mariage d'Orphelins
TTITLE1=Constellation
TTITLE2=Samosa
TTITLE3=Journey's Point
TTITLE4=Das ist doch kein Zustand
TTITLE5=Okonana
TTITLE6=Series
TTITLE7=Salutaris
TTITLE8=Calcunitketan
TTITLE9=Whatever
EXTD=
EXTT0=
EXTT1=
EXTT2=
EXTT3=
EXTT4=
EXTT5=
EXTT6=
EXTT7=
EXTT8=
EXTT9=
PLAYORDER=
